<svg xmlns="http://www.w3.org/2000/svg" xmlns:xlink="http://www.w3.org/1999/xlink" width="4000" zoomAndPan="magnify" viewBox="0 0 3000 2999.999989" height="4000" preserveAspectRatio="xMidYMid meet" version="1.0"><defs><clipPath id="1ba25adb7d"><path d="M 55.761719 55.761719 L 2944.011719 55.761719 L 2944.011719 2944.011719 L 55.761719 2944.011719 Z M 55.761719 55.761719 " clip-rule="nonzero"/></clipPath><clipPath id="2efe054df9"><path d="M 1050 1050 L 1950 1050 L 1950 1950 L 1050 1950 Z M 1050 1050 " clip-rule="nonzero"/></clipPath><clipPath id="c47dc6218b"><path d="M 1500 1050 C 1251.472656 1050 1050 1251.472656 1050 1500 C 1050 1748.527344 1251.472656 1950 1500 1950 C 1748.527344 1950 1950 1748.527344 1950 1500 C 1950 1251.472656 1748.527344 1050 1500 1050 Z M 1500 1050 " clip-rule="nonzero"/></clipPath><clipPath id="6efe888517"><path d="M 458.25 453.75 L 2565.75 453.75 L 2565.75 2561.25 L 458.25 2561.25 Z M 458.25 453.75 " clip-rule="nonzero"/></clipPath><clipPath id="dda56b88c4"><path d="M 1512 453.75 C 930.03125 453.75 458.25 925.53125 458.25 1507.5 C 458.25 2089.46875 930.03125 2561.25 1512 2561.25 C 2093.96875 2561.25 2565.75 2089.46875 2565.75 1507.5 C 2565.75 925.53125 2093.96875 453.75 1512 453.75 Z M 1512 453.75 " clip-rule="nonzero"/></clipPath></defs><g clip-path="url(#1ba25adb7d)"><path fill="#ffffff" d="M 1500.003906 2523.917969 C 935.410156 2523.917969 476.101562 2064.578125 476.101562 1500.011719 C 476.101562 935.417969 935.410156 476.109375 1500.003906 476.109375 C 2064.554688 476.109375 2523.910156 935.417969 2523.910156 1500.011719 C 2523.910156 2064.578125 2064.554688 2523.917969 1500.003906 2523.917969 Z M 2718.945312 1500.011719 C 2718.945312 1470.105469 2717.492188 1440.574219 2715.371094 1411.226562 L 2944.246094 1268.785156 C 2928.195312 1168.105469 2901.667969 1070.90625 2866.105469 978.144531 L 2597.546875 969.261719 C 2571.515625 915.550781 2541.625 864.0625 2508.332031 815.074219 L 2634.753906 578.355469 C 2571.179688 500.261719 2499.757812 428.835938 2421.6875 365.265625 L 2184.953125 491.710938 C 2135.980469 458.371094 2084.492188 428.503906 2030.757812 402.449219 L 2021.851562 133.886719 C 1929.109375 98.328125 1831.914062 71.824219 1731.210938 55.746094 L 1588.792969 284.648438 C 1559.421875 282.527344 1529.921875 281.074219 1500.003906 281.074219 C 1470.089844 281.074219 1440.550781 282.527344 1411.203125 284.648438 L 1268.761719 55.746094 C 1168.082031 71.824219 1070.898438 98.328125 978.121094 133.886719 L 969.246094 402.449219 C 915.535156 428.503906 864.03125 458.347656 815.058594 491.6875 L 578.355469 365.265625 C 500.238281 428.835938 428.816406 500.261719 365.25 578.355469 L 491.664062 815.074219 C 458.355469 864.0625 428.480469 915.550781 402.457031 969.261719 L 133.871094 978.144531 C 98.320312 1070.90625 71.800781 1168.105469 55.730469 1268.785156 L 284.640625 1411.226562 C 282.519531 1440.574219 281.066406 1470.105469 281.066406 1500.011719 C 281.066406 1529.929688 282.519531 1559.46875 284.640625 1588.816406 L 55.730469 1731.234375 C 71.800781 1831.9375 98.320312 1929.125 133.871094 2021.875 L 402.441406 2030.78125 C 428.457031 2084.5 458.332031 2136.011719 491.664062 2184.953125 L 365.25 2421.695312 C 428.816406 2499.789062 500.238281 2571.195312 578.355469 2634.777344 L 815.058594 2508.355469 C 864.03125 2541.695312 915.535156 2571.578125 969.246094 2597.578125 L 978.121094 2866.125 C 1070.898438 2901.691406 1168.082031 2928.210938 1268.761719 2944.253906 L 1411.203125 2715.394531 C 1440.550781 2717.5 1470.089844 2718.953125 1500.003906 2718.953125 C 1529.921875 2718.953125 1559.445312 2717.5 1588.792969 2715.394531 L 1731.210938 2944.253906 C 1831.914062 2928.210938 1929.109375 2901.691406 2021.851562 2866.125 L 2030.757812 2597.578125 C 2084.492188 2571.53125 2135.980469 2541.695312 2184.953125 2508.355469 L 2421.6875 2634.777344 C 2499.757812 2571.195312 2571.179688 2499.789062 2634.753906 2421.695312 L 2508.332031 2184.953125 C 2541.671875 2135.988281 2571.5625 2084.5 2597.570312 2030.78125 L 2866.105469 2021.875 C 2901.667969 1929.125 2928.195312 1831.9375 2944.246094 1731.234375 L 2715.371094 1588.816406 C 2717.492188 1559.46875 2718.945312 1529.929688 2718.945312 1500.011719 " fill-opacity="1" fill-rule="nonzero"/></g><path fill="#ffffff" d="M 1500.027344 1987.589844 C 1231.148438 1987.589844 1012.4375 1768.847656 1012.4375 1500.011719 C 1012.4375 1231.148438 1231.148438 1012.421875 1500.027344 1012.421875 C 1768.847656 1012.421875 1987.589844 1231.148438 1987.589844 1500.011719 C 1987.589844 1768.847656 1768.847656 1987.589844 1500.027344 1987.589844 Z M 1500.027344 524.863281 C 962.324219 524.863281 524.863281 962.316406 524.863281 1500.011719 C 524.863281 2037.726562 962.324219 2475.164062 1500.027344 2475.164062 C 2037.742188 2475.164062 2475.179688 2037.726562 2475.179688 1500.011719 C 2475.179688 962.316406 2037.742188 524.863281 1500.027344 524.863281 " fill-opacity="1" fill-rule="nonzero"/><path fill="#ffffff" d="M 1500.019531 1743.792969 C 1365.601562 1743.792969 1256.21875 1634.433594 1256.21875 1500.019531 C 1256.21875 1365.601562 1365.601562 1256.21875 1500.019531 1256.21875 C 1634.433594 1256.21875 1743.792969 1365.601562 1743.792969 1500.019531 C 1743.792969 1634.433594 1634.433594 1743.792969 1500.019531 1743.792969 Z M 1500.019531 1158.703125 C 1311.804688 1158.703125 1158.703125 1311.808594 1158.703125 1500.019531 C 1158.703125 1688.1875 1311.804688 1841.308594 1500.019531 1841.308594 C 1688.1875 1841.308594 1841.308594 1688.1875 1841.308594 1500.019531 C 1841.308594 1311.808594 1688.1875 1158.703125 1500.019531 1158.703125 " fill-opacity="1" fill-rule="nonzero"/><g clip-path="url(#2efe054df9)"><g clip-path="url(#c47dc6218b)"><path fill="#142360" d="M 1050 1050 L 1950 1050 L 1950 1950 L 1050 1950 Z M 1050 1050 " fill-opacity="1" fill-rule="nonzero"/></g></g><g clip-path="url(#6efe888517)"><g clip-path="url(#dda56b88c4)"><path fill="#ffffff" d="M 458.25 453.75 L 2565.75 453.75 L 2565.75 2561.25 L 458.25 2561.25 Z M 458.25 453.75 " fill-opacity="1" fill-rule="nonzero"/></g></g></svg>