<svg xmlns="http://www.w3.org/2000/svg" xmlns:xlink="http://www.w3.org/1999/xlink" width="4000" zoomAndPan="magnify" viewBox="0 0 3000 2999.999989" height="4000" preserveAspectRatio="xMidYMid meet" version="1.0"><defs><clipPath id="a4b657165b"><path d="M 0 1500 L 3000 1500 L 3000 3000 L 0 3000 Z M 0 1500 " clip-rule="nonzero"/></clipPath><clipPath id="071242e930"><path d="M 0 2163.570312 L 3000 2163.570312 L 3000 3000 L 0 3000 Z M 0 2163.570312 " clip-rule="nonzero"/></clipPath><clipPath id="775418577e"><path d="M 1520.007812 2163.570312 C 549.683594 2163.570312 -236.917969 2950.171875 -236.917969 3920.492188 C -236.917969 4890.816406 549.683594 5677.417969 1520.007812 5677.417969 C 2490.332031 5677.417969 3276.933594 4890.816406 3276.933594 3920.492188 C 3276.933594 2950.171875 2490.332031 2163.570312 1520.007812 2163.570312 Z M 1520.007812 2163.570312 " clip-rule="nonzero"/></clipPath></defs><g clip-path="url(#a4b657165b)"><path fill="#ffffff" d="M 1500.007812 5615.175781 C 558.652344 5615.175781 -207.152344 4849.316406 -207.152344 3908.011719 C -207.152344 2966.652344 558.652344 2200.847656 1500.007812 2200.847656 C 2441.289062 2200.847656 3207.171875 2966.652344 3207.171875 3908.011719 C 3207.171875 4849.316406 2441.289062 5615.175781 1500.007812 5615.175781 Z M 3532.351562 3908.011719 C 3532.351562 3858.148438 3529.929688 3808.90625 3526.398438 3759.976562 L 3908.003906 3522.480469 C 3881.242188 3354.621094 3837.011719 3192.558594 3777.71875 3037.894531 L 3329.949219 3023.082031 C 3286.546875 2933.53125 3236.707031 2847.6875 3181.199219 2766.007812 L 3391.980469 2371.324219 C 3285.988281 2241.117188 3166.902344 2122.03125 3036.734375 2016.039062 L 2642.023438 2226.859375 C 2560.375 2171.273438 2474.527344 2121.476562 2384.9375 2078.035156 L 2370.085938 1630.261719 C 2215.460938 1570.972656 2053.402344 1526.78125 1885.503906 1499.976562 L 1648.046875 1881.625 C 1599.074219 1878.089844 1549.886719 1875.667969 1500.007812 1875.667969 C 1450.132812 1875.667969 1400.878906 1878.089844 1351.949219 1881.625 L 1114.453125 1499.976562 C 946.59375 1526.78125 784.558594 1570.972656 629.867188 1630.261719 L 615.066406 2078.035156 C 525.519531 2121.476562 439.644531 2171.234375 357.996094 2226.820312 L -36.664062 2016.039062 C -166.910156 2122.03125 -285.996094 2241.117188 -391.976562 2371.324219 L -181.207031 2766.007812 C -236.738281 2847.6875 -286.550781 2933.53125 -329.941406 3023.082031 L -777.753906 3037.894531 C -837.03125 3192.558594 -881.246094 3354.621094 -908.039062 3522.480469 L -526.378906 3759.976562 C -529.914062 3808.90625 -532.332031 3858.148438 -532.332031 3908.011719 C -532.332031 3957.886719 -529.914062 4007.140625 -526.378906 4056.074219 L -908.039062 4293.53125 C -881.246094 4461.429688 -837.03125 4623.472656 -777.753906 4778.113281 L -329.964844 4792.964844 C -286.589844 4882.527344 -236.777344 4968.414062 -181.207031 5050.011719 L -391.976562 5444.738281 C -285.996094 5574.945312 -166.910156 5694.003906 -36.664062 5800.007812 L 357.996094 5589.226562 C 439.644531 5644.8125 525.519531 5694.636719 615.066406 5737.988281 L 629.867188 6185.734375 C 784.558594 6245.039062 946.59375 6289.253906 1114.453125 6316.007812 L 1351.949219 5934.425781 C 1400.878906 5937.933594 1450.132812 5940.355469 1500.007812 5940.355469 C 1549.886719 5940.355469 1599.113281 5937.933594 1648.046875 5934.425781 L 1885.503906 6316.007812 C 2053.402344 6289.253906 2215.460938 6245.039062 2370.085938 6185.734375 L 2384.9375 5737.988281 C 2474.527344 5694.558594 2560.375 5644.8125 2642.023438 5589.226562 L 3036.734375 5800.007812 C 3166.902344 5694.003906 3285.988281 5574.945312 3391.980469 5444.738281 L 3181.199219 5050.011719 C 3236.785156 4968.375 3286.621094 4882.527344 3329.984375 4792.964844 L 3777.71875 4778.113281 C 3837.011719 4623.472656 3881.242188 4461.429688 3908.003906 4293.53125 L 3526.398438 4056.074219 C 3529.929688 4007.140625 3532.351562 3957.886719 3532.351562 3908.011719 " fill-opacity="1" fill-rule="nonzero"/></g><path fill="#ffffff" d="M 1500.046875 4720.949219 C 1051.746094 4720.949219 687.085938 4356.238281 687.085938 3908.011719 C 687.085938 3459.734375 1051.746094 3095.046875 1500.046875 3095.046875 C 1948.25 3095.046875 2312.960938 3459.734375 2312.960938 3908.011719 C 2312.960938 4356.238281 1948.25 4720.949219 1500.046875 4720.949219 Z M 1500.046875 2282.136719 C 603.53125 2282.136719 -125.851562 3011.507812 -125.851562 3908.011719 C -125.851562 4804.542969 603.53125 5533.886719 1500.046875 5533.886719 C 2396.578125 5533.886719 3125.921875 4804.542969 3125.921875 3908.011719 C 3125.921875 3011.507812 2396.578125 2282.136719 1500.046875 2282.136719 " fill-opacity="1" fill-rule="nonzero"/><g clip-path="url(#071242e930)"><g clip-path="url(#775418577e)"><path fill="#ffffff" d="M -236.917969 2163.570312 L 3276.933594 2163.570312 L 3276.933594 5677.417969 L -236.917969 5677.417969 Z M -236.917969 2163.570312 " fill-opacity="1" fill-rule="nonzero"/></g></g></svg>